<?xml version="1.0"?><svg id="Layer_1" style="enable-background:new 0 0 66 66;" version="1.1" viewBox="0 0 66 66" xml:space="preserve" xmlns="http://www.w3.org/2000/svg" xmlns:xlink="http://www.w3.org/1999/xlink"><g><path d="M63,53.3c-0.9-1.2-2.5-1.9-4.1-1.8c-0.1,0-0.1,0-0.2,0l-15.4,3.8c0.2-1.6-1.1-3.1-3-3.6c-10.7-2.4-19.8-2.6-27.8-0.7   l-9.4,2.7c-0.5,0.2-0.8,0.7-0.7,1.2c0.2,0.5,0.7,0.8,1.2,0.7l9.4-2.7c7.6-1.8,16.4-1.6,26.8,0.7c0.9,0.2,1.5,0.8,1.5,1.4   c0,0.4-0.4,0.6-0.6,0.7c-0.4,0.2-1,0.3-1.5,0.3l-11.6-1.4c-0.6-0.1-1,0.3-1.1,0.9c-0.1,0.5,0.3,1,0.9,1.1L38.9,58   c0.2,0,0.4,0,0.6,0c0.3,0,0.5,0,0.8-0.1c0.1,0,0.2,0,0.3,0L59,53.5c0,0,0,0,0,0c0.9,0,1.9,0.4,2.3,1c0.2,0.2,0.3,0.6,0.2,1   c-0.1,0.4-0.5,0.8-1.1,0.9c-10.3,3.6-23.8,7.6-37.1,6l-6.8-0.8c-0.1,0-0.2,0-0.3,0L7.8,63c-0.5,0.1-0.9,0.6-0.8,1.1   C7,64.6,7.4,65,7.9,65C8,65,8,65,8.1,65l8.5-1.3l6.7,0.8C37,66,50.7,62,61.2,58.3c1.2-0.4,2-1.2,2.3-2.3   C63.8,55.2,63.6,54.1,63,53.3z"/><path d="M61.2,11.7l-2.5-1.4c-0.3-1.9-1.9-3.3-3.8-3.3h-0.2c-2.1,0-3.9,1.7-3.9,3.9v24c0,0,0,0,0,0c0,0.1,0,0.2,0.1,0.3v0   c0,0,0,0,0,0l2.9,6.3c0.2,0.4,0.5,0.6,0.9,0.6s0.7-0.2,0.9-0.6l2.9-6.3c0,0,0,0,0,0c0,0,0,0,0,0c0-0.1,0.1-0.2,0.1-0.3   c0,0,0,0,0-0.1V12.6l0.9,0.5v6.6c0,0.6,0.5,1,1,1c0.5,0,1-0.4,1-1v-7.2C61.7,12.2,61.5,11.8,61.2,11.7z M54.9,38.7l-1.4-3h2.8   L54.9,38.7z"/><path d="M41.6,1H13.1c-2.8,0-5,2.2-5,5v36.7c0,2.8,2.2,5,5,5h28.6c2.8,0,5-2.2,5-5V6C46.6,3.2,44.4,1,41.6,1z M44.6,42.7   c0,1.6-1.4,3-3,3H13.1c-1.6,0-3-1.4-3-3V6c0-1.7,1.4-3,3-3h28.6c1.6,0,3,1.3,3,3V42.7z"/><path d="M35.7,15.3c-0.2,0.2-0.4,0.3-0.7,0.3c-0.3,0-0.5-0.1-0.7-0.3l-0.5-0.5V20c0,0.6-0.5,1-1,1H22c-0.5,0-1-0.4-1-1v-5.3   l-0.5,0.5c-0.4,0.4-1,0.4-1.4,0c-0.4-0.4-0.4-1,0-1.4l7.6-7.6c0.4-0.4,1-0.4,1.4,0l7.6,7.6C36.1,14.2,36.1,14.9,35.7,15.3z"/><path d="M15.4,26.2h24c0.6,0,1-0.4,1-1s-0.4-1-1-1h-24c-0.6,0-1,0.4-1,1S14.8,26.2,15.4,26.2z"/><path d="M15.4,32.6h24c0.6,0,1-0.4,1-1c0-0.6-0.4-1-1-1h-24c-0.6,0-1,0.4-1,1C14.4,32.1,14.8,32.6,15.4,32.6z"/><path d="M15.4,39H26c0.6,0,1-0.4,1-1c0-0.6-0.4-1-1-1H15.4c-0.6,0-1,0.4-1,1C14.4,38.6,14.8,39,15.4,39z"/><path d="M39.3,35.1c-0.5-0.2-1.1,0-1.3,0.4c-1.2,2.5-2.5,2.7-3.5,2.4l-1.9-2.8c-0.2-0.3-0.6-0.5-1-0.4c-0.4,0.1-0.7,0.3-0.8,0.7   l-1.2,4c-0.2,0.5,0.1,1.1,0.7,1.2c0.1,0,0.2,0,0.3,0c0.4,0,0.8-0.3,1-0.7l0.6-2l0.9,1.4c0.1,0.2,0.3,0.3,0.5,0.4   c1.8,0.6,4.3,0.5,6.2-3.3C40,36,39.8,35.4,39.3,35.1z"/></g></svg>