<?xml version="1.0" encoding="UTF-8"?>
<svg id="Layer_1" xmlns="http://www.w3.org/2000/svg" xmlns:xlink="http://www.w3.org/1999/xlink" viewBox="0 0 2632.84 1292.94">
  <defs>
    <style>
      .cls-1 {
        opacity: .3;
      }

      .cls-2, .cls-3 {
        fill: none;
      }

      .cls-3 {
        stroke: #29abe2;
        stroke-miterlimit: 10;
      }

      .cls-4 {
        clip-path: url(#clippath);
      }
    </style>
    <clipPath id="clippath">
      <rect class="cls-2" x="299.02" width="1999" height="1249.31"/>
    </clipPath>
  </defs>
  <g class="cls-4">
    <g class="cls-1">
      <path class="cls-3" d="M.11,175.61c169.28-39.53,359.95,64.75,417.99,228.62,24.36,68.77,27.16,143.36,47.37,213.46,20.21,70.1,65.32,140.78,136.12,158.4,75.79,18.86,151.93-29.04,208.04-83.37,93.04-90.08,160.75-202.39,236.73-307.25,75.98-104.86,165-206.23,282.99-259.59,62.34-28.2,138.67-40.7,197.05-5.01,46.62,28.49,72.14,81.93,85.78,134.84,33.81,131.22,9.36,269.33,7.01,404.82-.89,51.63,2.93,107.4,35.63,147.36,29.92,36.56,79.55,52.68,126.79,51.61,47.23-1.08,92.77-17.28,136.21-35.83,132.79-56.7,258.06-138.01,400.7-160.45,35.4-5.57,73.34-7,105.33,9.16,55.07,27.82,73.56,95.51,92.37,154.27,18.81,58.77,55.04,124.59,116.58,129.13"/>
      <path class="cls-3" d="M2.14,208.75c164.92-36.25,350.87,65.12,409.41,223.15,24.57,66.32,28.43,138.13,49.04,205.52,20.6,67.39,65.06,135.59,134.36,151.95,75.94,17.92,152.19-29.88,208.84-83.9,33.5-31.95,63.8-66.77,92.35-103.12,51.5-65.55,97.78-135.87,147.53-202.48,52.73-70.61,111.2-139.74,180.73-191.26,30.45-22.57,62.89-41.87,97.78-56.81,10.93-4.68,22.28-8.86,33.88-12.36,52.64-15.9,110.38-17.83,156.41,11.37,44.86,28.44,69.35,80.87,82.41,132.8,9.29,36.94,13.98,74.42,15.92,112.23,4.82,93.99-7.17,190.19-7.78,284.57-.3,50.47,3.99,104.86,36.53,143.54,30.14,35.83,79.56,50.93,126.45,49.2,33.94-1.23,66.97-10.3,98.89-22.37,12.11-4.59,24.08-9.61,35.89-14.8,126.22-55.55,245.3-133.64,380.26-160.22,5.36-1.05,10.74-2.03,16.16-2.91,14.72-2.39,29.89-4.01,44.85-3.74,20.81.38,41.16,4.12,59.24,13.99,41.58,22.69,61.33,68.75,78.65,114.87,5.69,15.11,11.06,30.19,16.55,44.55,8.01,20.98,18.4,42.42,31.24,61.35,22.69,33.66,53.22,59.57,93.67,61.35"/>
      <path class="cls-3" d="M4.17,241.9c160.56-32.97,341.78,65.48,400.84,217.68,24.78,63.87,29.71,132.9,50.7,197.58,20.99,64.67,64.8,130.38,132.59,145.49,76.09,16.96,152.46-30.72,209.63-84.43,33.8-31.76,64.43-66.44,93.27-102.68,52.03-65.38,99.12-135.49,149.75-201.26,52.58-68.32,110.42-135.33,178.69-183.8,29.89-21.24,61.51-39.12,95.35-52.75,10.6-4.26,21.59-8.04,32.81-11.17,50.91-14.2,106.48-14.95,150.72,14.2,43.11,28.38,66.55,79.81,79.04,130.76,8.88,36.23,13.35,72.99,15.22,110.05,4.65,92.14-6.42,186.58-5.95,278.72.3,49.31,5.07,102.32,37.44,139.72,30.36,35.09,79.57,49.18,126.11,46.8,33.64-1.68,66.36-11.09,97.87-23.41,11.97-4.69,23.8-9.81,35.46-15.1,124.73-56.56,242.13-135.45,376.09-162.82,5.32-1.08,10.67-2.09,16.05-2.99,14.64-2.46,29.73-4.08,44.58-3.64,20.65.61,40.71,4.69,58.26,14.99,41.67,24.46,60.43,72.94,79.32,119.8,6.24,15.39,12.37,30.52,18.71,44.76,9.25,20.8,21.06,41.58,35.03,59.68,24.75,32.04,56.7,55.93,98.21,56.58"/>
      <path class="cls-3" d="M6.2,275.04c156.19-29.68,332.69,65.84,392.26,212.2,24.99,61.43,30.98,127.67,52.37,189.63,21.38,61.96,64.56,125.13,130.83,139.03,76.27,16,152.73-31.56,210.43-84.96,34.1-31.57,65.06-66.1,94.19-102.24,52.56-65.21,100.44-135.1,151.98-200.05,52.41-66.04,109.64-130.93,176.64-176.34,29.33-19.91,60.13-36.37,92.92-48.69,10.27-3.85,20.9-7.23,31.74-9.98,49.18-12.5,102.59-12.07,145.03,17.03,41.35,28.32,63.76,78.76,75.67,128.72,8.48,35.53,12.72,71.56,14.52,107.88,4.48,90.29-5.67,182.98-4.12,272.87.9,48.15,6.16,99.78,38.34,135.91s79.58,47.42,125.77,44.39c33.34-2.13,65.74-11.87,96.86-24.46,11.83-4.8,23.51-10.01,35.04-15.39,123.23-57.57,238.95-137.26,371.93-165.42,5.27-1.12,10.59-2.15,15.93-3.07,14.56-2.53,29.58-4.16,44.32-3.54,20.48.84,40.25,5.28,57.28,15.99,41.77,26.27,59.52,77.12,80,124.72,6.78,15.67,13.67,30.85,20.86,44.98,10.49,20.62,23.68,40.76,38.82,58.01,26.75,30.46,60.17,52.29,102.74,51.82"/>
      <path class="cls-3" d="M8.23,308.19c151.83-26.4,323.61,66.2,383.68,206.73,25.2,58.98,32.26,122.44,54.03,181.69,21.77,59.25,64.33,119.86,129.06,132.57,76.45,15.02,153-32.4,211.22-85.49,34.4-31.38,65.7-65.77,95.1-101.81,53.09-65.04,101.74-134.72,154.21-198.83,52.19-63.77,108.86-126.52,174.59-168.88,28.77-18.57,58.76-33.62,90.49-44.63,9.94-3.44,20.22-6.42,30.67-8.8,47.45-10.8,98.7-9.19,139.34,19.87,39.6,28.26,60.96,77.7,72.3,126.68,8.07,34.83,12.09,70.14,13.83,105.71,4.31,88.44-4.92,179.37-2.3,267.02,1.5,46.99,7.26,97.23,39.24,132.09,30.84,33.61,79.59,45.67,125.43,41.98,33.04-2.58,65.12-12.66,95.84-25.5,11.69-4.9,23.23-10.21,34.62-15.69,121.74-58.58,235.78-139.07,367.76-168.02,5.23-1.15,10.51-2.21,15.82-3.16,14.48-2.59,29.42-4.24,44.06-3.45,20.32,1.08,39.79,5.9,56.3,16.98,41.88,28.13,58.62,81.3,80.67,129.65,7.33,15.95,14.97,31.18,23.02,45.19,11.73,20.45,26.29,39.94,42.61,56.34,28.74,28.88,63.65,48.64,107.28,47.05"/>
      <path class="cls-3" d="M10.25,341.34c147.47-23.12,314.52,66.57,375.11,201.26,25.41,56.53,33.53,117.21,55.7,173.74,22.16,56.53,64.12,114.56,127.3,126.12,76.65,14.02,153.27-33.24,212.01-86.02,34.7-31.19,66.33-65.43,96.02-101.37,53.62-64.87,103.01-134.35,156.43-197.61,51.95-61.52,108.08-122.11,172.54-161.42,28.21-17.24,57.38-30.87,88.06-40.57,9.61-3.03,19.53-5.61,29.6-7.61,45.72-9.1,94.81-6.31,133.65,22.7,37.84,28.21,58.17,76.64,68.93,124.64,7.66,34.13,11.46,68.71,13.13,103.53,4.14,86.59-4.16,175.76-.47,261.17,2.1,45.83,8.38,94.67,40.15,128.27,31.09,32.87,79.6,43.92,125.09,39.58,32.74-3.03,64.5-13.45,94.83-26.55,11.55-5.01,22.94-10.41,34.19-15.99,120.24-59.59,232.61-140.88,363.6-170.62,5.19-1.18,10.43-2.27,15.7-3.24,14.4-2.66,29.27-4.31,43.79-3.35,20.16,1.31,39.32,6.54,55.32,17.98,41.98,30.04,57.72,85.48,81.35,134.58,7.88,16.22,16.27,31.52,25.18,45.4,12.97,20.27,28.9,39.12,46.4,54.67,30.72,27.3,67.12,45,111.82,42.29"/>
      <path class="cls-3" d="M12.28,374.48c143.1-19.84,305.44,66.93,366.53,195.79,25.62,54.08,34.8,111.98,57.36,165.8,22.55,53.82,63.91,109.23,125.53,119.66,76.87,13.01,153.54-34.08,212.81-86.55,35.01-31,66.96-65.1,96.94-100.94,54.15-64.71,104.26-133.97,158.66-196.39s107.3-117.7,170.5-153.96c27.65-15.91,56-28.12,85.63-36.51,9.29-2.61,18.84-4.8,28.54-6.42,43.99-7.4,90.92-3.43,127.96,25.53,36.09,28.15,55.38,75.58,65.56,122.6,7.25,33.42,10.84,67.28,12.43,101.36,3.97,84.74-3.41,172.15,1.35,255.32,2.7,44.67,9.5,92.11,41.05,124.45,31.35,32.13,79.61,42.16,124.75,37.17,32.44-3.49,63.88-14.24,93.81-27.6,11.4-5.11,22.66-10.61,33.77-16.28,118.75-60.6,229.43-142.69,359.44-173.22,5.15-1.21,10.35-2.33,15.59-3.32,14.32-2.72,29.11-4.39,43.53-3.26,19.99,1.54,38.85,7.21,54.33,18.98,42.09,31.99,56.81,89.66,82.02,139.51,8.42,16.5,17.57,31.85,27.33,45.62,14.21,20.09,31.51,38.3,50.19,53,32.69,25.72,70.6,41.36,116.36,37.53"/>
      <path class="cls-3" d="M14.31,407.63c138.74-16.56,296.35,67.29,357.95,190.32,25.84,51.63,36.08,106.75,59.03,157.86,22.94,51.1,63.72,103.87,123.77,113.2,77.1,11.98,153.8-34.92,213.6-87.08,35.31-30.81,67.59-64.77,97.85-100.5,54.68-64.54,105.48-133.61,160.89-195.18,51.35-57.06,106.52-113.29,168.45-146.5,27.09-14.58,54.62-25.37,83.2-32.45,8.96-2.2,18.16-3.98,27.47-5.24,42.26-5.7,87.03-.55,122.26,28.37,34.33,28.09,52.58,74.52,62.2,120.56,6.84,32.72,10.21,65.85,11.74,99.18,3.8,82.89-2.66,168.55,3.18,249.47,3.3,43.51,10.64,89.55,41.96,120.63,31.62,31.38,79.62,40.41,124.41,34.77,32.14-3.94,63.27-15.03,92.79-28.64,11.26-5.22,22.38-10.81,33.35-16.58,117.25-61.62,226.26-144.5,355.27-175.82,5.11-1.24,10.27-2.39,15.48-3.41,14.23-2.79,28.96-4.46,43.27-3.16,19.83,1.78,38.36,7.89,53.35,19.98,42.18,33.99,55.91,93.84,82.69,144.44,8.97,16.78,18.87,32.18,29.49,45.83,15.45,19.92,34.11,37.49,53.98,51.33,34.66,24.15,74.08,37.72,120.9,32.76"/>
      <path class="cls-3" d="M16.34,440.78c134.38-13.27,287.27,67.65,349.38,184.85,26.05,49.18,37.35,101.52,60.69,149.91,23.33,48.39,63.54,98.48,122.01,106.74,77.34,10.93,154.07-35.76,214.4-87.61,35.61-30.62,68.23-64.43,98.77-100.06,55.2-64.37,106.67-133.25,163.12-193.96,51.01-54.86,105.74-108.88,166.4-139.04,26.52-13.24,53.24-22.62,80.77-28.39,8.63-1.79,17.47-3.17,26.4-4.05,40.53-4,83.14,2.33,116.57,31.2,32.58,28.03,49.79,73.47,58.83,118.53,6.43,32.02,9.58,64.42,11.04,97.01,3.63,81.05-2.07,164.95,5,243.62,3.81,42.36,11.79,86.97,42.86,116.81,31.9,30.63,79.63,38.66,124.07,32.36,31.84-4.39,62.65-15.81,91.78-29.69,11.12-5.32,22.09-11.01,32.92-16.87,115.76-62.63,223.08-146.31,351.11-178.42,5.06-1.27,10.19-2.45,15.36-3.49,14.15-2.86,28.8-4.54,43-3.06,19.67,2.01,37.86,8.6,52.37,20.97,42.25,36.03,55.01,98.02,83.37,149.36,9.51,17.06,20.18,32.51,31.64,46.04,16.69,19.74,36.71,36.67,57.77,49.66,36.62,22.58,77.55,34.08,125.44,28"/>
      <path class="cls-3" d="M18.37,473.92c130.01-9.99,278.18,68.01,340.8,179.38,26.26,46.74,38.62,96.29,62.36,141.97,23.72,45.68,63.36,93.06,120.24,100.28,77.59,9.86,154.34-36.6,215.19-88.13,35.91-30.43,68.86-64.1,99.69-99.63,55.73-64.2,107.84-132.91,165.34-192.74,50.63-52.69,104.96-104.48,164.35-131.58,25.96-11.91,51.86-19.87,78.34-24.33,8.3-1.38,16.78-2.36,25.33-2.86,38.8-2.3,79.25,5.21,110.88,34.04,30.82,27.97,46.99,72.41,55.46,116.49,6.03,31.31,8.95,62.99,10.34,94.84,3.46,79.2-1.33,161.35,6.83,237.77,4.4,41.2,12.95,84.39,43.77,113s79.62,36.81,123.73,29.96c31.54-4.9,62.03-16.6,90.76-30.73,10.98-5.43,21.81-11.21,32.5-17.17,114.26-63.64,219.91-148.12,346.94-181.02,5.02-1.3,10.11-2.51,15.25-3.57,14.07-2.92,28.64-4.61,42.74-2.97,19.5,2.25,37.36,9.33,51.39,21.97,42.3,38.11,54,102.27,84.04,154.29,10.02,17.36,21.48,32.85,33.8,46.26,17.93,19.56,39.31,35.87,61.56,47.99,38.58,21.02,81.03,30.44,129.98,23.23"/>
      <path class="cls-3" d="M20.4,507.07c125.65-6.71,269.1,68.38,332.22,173.91,26.47,44.29,39.9,91.06,64.03,134.02,24.11,42.96,63.2,87.61,118.48,93.83,77.85,8.76,154.61-37.44,215.99-88.66,36.22-30.24,69.49-63.77,100.61-99.19,56.26-64.03,108.99-132.58,167.57-191.53,50.22-50.53,104.18-100.07,162.3-124.12,25.4-10.58,50.49-17.12,75.91-20.27,7.97-.96,16.1-1.55,24.26-1.68,37.07-.6,75.36,8.09,105.19,36.87,29.07,27.92,44.2,71.35,52.09,114.45,5.62,30.61,8.32,61.57,9.65,92.66,3.29,77.35-.59,157.75,8.65,231.92,4.99,40.05,14.12,81.8,44.67,109.18,32.49,29.12,79.63,35.06,123.39,27.55,31.23-5.36,61.41-17.39,89.75-31.78,10.83-5.53,21.52-11.41,32.08-17.46,112.77-64.65,216.73-149.93,342.78-183.62,4.98-1.33,10.03-2.57,15.13-3.65,13.99-2.99,28.49-4.69,42.48-2.87,19.34,2.48,36.84,10.07,50.41,22.97,42.32,40.23,53.2,106.39,84.72,159.22,10.6,17.61,22.78,33.18,35.95,46.47,19.17,19.39,41.9,35.06,65.35,46.32,40.53,19.47,84.51,26.8,134.51,18.47"/>
      <path class="cls-3" d="M22.42,540.21c121.29-3.43,260.01,68.74,323.65,168.44,26.68,41.84,41.17,85.83,65.69,126.08,24.49,40.25,63.04,82.12,116.71,87.37,78.13,7.64,154.88-38.27,216.78-89.19,36.52-30.05,70.13-63.43,101.52-98.75,56.79-63.86,110.1-132.27,169.8-190.31,49.78-48.4,103.4-95.66,160.26-116.66,24.84-9.24,49.11-14.37,73.48-16.21,7.65-.55,15.41-.73,23.2-.49,35.34,1.1,71.46,10.97,99.5,39.7,27.31,27.86,41.4,70.29,48.72,112.41,5.21,29.91,7.69,60.14,8.95,90.49,3.12,75.5.15,154.14,10.48,226.07,5.59,38.89,15.31,79.2,45.57,105.36,32.8,28.35,79.64,33.3,123.05,25.15,30.93-5.81,60.79-18.18,88.73-32.82,10.69-5.64,21.24-11.61,31.65-17.76,111.27-65.66,213.56-151.74,338.61-186.22,4.94-1.36,9.96-2.63,15.02-3.74,13.91-3.05,28.33-4.76,42.21-2.78,19.18,2.71,36.31,10.82,49.43,23.97,42.32,42.39,52.3,110.57,85.39,164.15,11.15,17.89,24.08,33.51,38.11,46.69,20.41,19.21,44.5,34.26,69.14,44.65,42.48,17.92,87.98,23.16,139.05,13.71"/>
      <path class="cls-3" d="M24.45,573.36c116.92-.15,250.92,69.1,315.07,162.97,26.89,39.39,42.45,80.6,67.36,118.14,24.88,37.53,62.89,76.61,114.95,80.91,78.41,6.48,155.15-39.11,217.58-89.72,36.82-29.86,70.76-63.1,102.44-98.32,57.32-63.7,111.18-131.98,172.02-189.09,49.31-46.29,102.62-91.25,158.21-109.2,24.28-7.91,47.73-11.67,71.05-12.15,7.32-.15,14.72.08,22.13.7,33.61,2.8,67.57,13.85,93.8,42.54,25.56,27.8,38.61,69.24,45.35,110.37,4.8,29.2,7.06,58.71,8.25,88.32,2.95,73.65.89,150.54,12.3,220.22,6.18,37.73,16.5,76.59,46.48,101.54,33.12,27.57,79.64,31.54,122.71,22.74,30.63-6.26,60.18-18.96,87.72-33.87,10.55-5.74,20.96-11.81,31.23-18.05,109.78-66.67,210.39-153.55,334.45-188.81,4.9-1.39,9.88-2.69,14.91-3.82,13.83-3.12,28.18-4.84,41.95-2.68,19.01,2.95,35.77,11.59,48.45,24.96,42.27,44.59,51.4,114.75,86.07,169.07,11.69,18.17,25.38,33.84,40.26,46.9,21.65,19.03,47.09,33.46,72.93,42.98,44.43,16.37,91.46,19.51,143.59,8.94"/>
      <path class="cls-3" d="M26.48,606.51c112.56,3.14,241.84,69.46,306.49,157.5,27.1,36.94,43.72,75.37,69.02,110.19,25.27,34.82,62.74,71.07,113.18,74.45,78.7,5.28,155.41-39.95,218.37-90.25,37.12-29.67,71.39-62.76,103.36-97.88,57.85-63.53,112.23-131.71,174.25-187.87,48.81-44.2,101.84-86.84,156.16-101.74,23.72-6.58,46.35-8.92,68.62-8.09,6.99.26,14.04.89,21.06,1.88,31.88,4.5,63.68,16.73,88.11,45.37,23.8,27.74,35.81,68.18,41.98,108.33,4.39,28.5,6.44,57.28,7.56,86.14,2.78,71.8,1.64,146.94,14.13,214.37,6.78,36.58,17.71,73.97,47.38,97.72,33.46,26.78,79.65,29.79,122.37,20.33,30.33-6.71,59.56-19.75,86.7-34.91,10.41-5.84,20.67-12.02,30.8-18.35,108.28-67.69,207.21-155.36,330.29-191.41,4.85-1.42,9.8-2.75,14.79-3.9,13.75-3.19,28.02-4.92,41.69-2.58,18.85,3.18,35.22,12.36,47.47,25.96,42.19,46.82,50.49,118.93,86.74,174,12.24,18.45,26.68,34.18,42.42,47.11,22.89,18.86,49.68,32.66,76.72,41.31,46.37,14.84,94.93,15.87,148.13,4.18"/>
      <path class="cls-3" d="M28.51,639.65c108.2,6.42,232.75,69.83,297.92,152.03,27.31,34.49,44.99,70.14,70.69,102.25,25.66,32.11,62.6,65.49,111.42,68,79,4.05,155.68-40.79,219.17-90.78,37.42-29.49,72.03-62.43,104.27-97.45,58.38-63.36,113.26-131.48,176.48-186.66,48.28-42.14,101.06-82.43,154.11-94.28,23.16-5.25,44.98-6.17,66.19-4.03,6.66.67,13.35,1.7,19.99,3.07,30.15,6.2,59.79,19.61,82.42,48.21,22.04,27.69,33.02,67.12,38.61,106.29,3.98,27.8,5.81,55.85,6.86,83.97,2.61,69.95,2.39,143.34,15.95,208.52,7.37,35.42,18.93,71.34,48.29,93.91,33.8,25.98,79.66,28.04,122.03,17.93,30.03-7.16,58.94-20.54,85.69-35.96,10.27-5.95,20.39-12.22,30.38-18.65,106.78-68.7,204.04-157.17,326.12-194.01,4.81-1.45,9.72-2.81,14.68-3.99,13.67-3.25,27.87-4.99,41.42-2.49,18.69,3.42,34.65,13.15,46.49,26.96,42.07,49.09,49.59,123.11,87.41,178.93,12.79,18.73,27.99,34.51,44.58,47.33,24.13,18.68,52.27,31.87,80.51,39.64,48.32,13.3,98.41,12.23,152.67-.59"/>
      <path class="cls-3" d="M30.54,672.8c103.83,9.7,223.67,70.19,289.34,146.56,27.52,32.04,46.27,64.91,72.35,94.31,26.05,29.39,62.55,64.77,109.65,61.54,79.17-5.44,155.95-41.63,219.96-91.31,37.73-29.3,72.66-62.1,105.19-97.01,58.91-63.19,114.25-131.27,178.71-185.44,47.73-40.11,100.28-78.03,152.07-86.82,22.6-3.91,43.6-3.42,63.76.03,6.34,1.08,12.66,2.52,18.92,4.26,28.42,7.9,55.9,22.49,76.73,51.04,20.29,27.63,30.23,66.06,35.25,104.25,3.58,27.1,5.18,54.42,6.16,81.8,2.44,68.1,3.14,139.74,17.78,202.68,7.97,34.26,20.16,68.7,49.19,90.09,34.16,25.17,79.67,26.28,121.69,15.52,29.73-7.61,58.32-21.33,84.67-37.01,10.12-6.05,20.1-12.42,29.96-18.94,105.29-69.71,200.86-158.98,321.96-196.61,4.77-1.48,9.64-2.87,14.56-4.07,13.59-3.32,27.71-5.07,41.16-2.39,18.52,3.65,34.08,13.94,45.51,27.96,41.9,51.38,48.69,127.29,88.09,183.86,13.33,19.01,29.29,34.84,46.73,47.54,25.37,18.51,54.86,31.08,84.29,37.97,50.27,11.78,101.89,8.59,157.21-5.35"/>
      <path class="cls-3" d="M32.56,705.94c99.47,12.98,214.58,70.55,280.76,141.09,27.73,29.6,47.54,59.69,74.02,86.36,26.44,26.68,62.49,58.97,107.89,55.08,79.33-6.8,156.22-42.47,220.75-91.84,38.03-29.11,73.29-61.76,106.11-96.57,59.44-63.02,115.21-131.11,180.93-184.22,47.16-38.11,99.49-73.62,150.02-79.36,22.04-2.58,42.23-.67,61.33,4.09,6.01,1.5,11.98,3.33,17.86,5.44,26.69,9.59,52.01,25.37,71.04,53.87,18.53,27.57,27.43,65,31.88,102.22,3.17,26.39,4.55,53,5.47,79.62,2.27,66.25,3.89,136.13,19.6,196.83,8.57,33.1,21.4,66.04,50.09,86.27,34.53,24.35,79.68,24.53,121.35,13.12,29.43-8.06,57.7-22.12,83.66-38.05,9.98-6.16,19.82-12.62,29.53-19.24,103.79-70.72,197.69-160.79,317.79-199.21,4.73-1.51,9.56-2.93,14.45-4.15,13.51-3.38,27.56-5.14,40.9-2.3,18.36,3.88,33.49,14.74,44.53,28.95,41.69,53.71,47.78,131.48,88.76,188.79,13.88,19.28,30.59,35.17,48.89,47.76,26.61,18.33,57.46,30.29,88.08,36.3,52.22,10.25,105.36,4.95,161.74-10.11"/>
      <path class="cls-3" d="M34.59,739.09c95.11,16.26,205.5,70.91,272.19,135.62,27.94,27.15,48.81,54.46,75.68,78.42,26.83,23.96,62.42,53.08,106.12,48.62,79.5-8.11,156.49-43.31,221.55-92.37,38.33-28.92,73.93-61.43,107.02-96.14,59.97-62.86,116.13-130.99,183.16-183,46.56-36.13,98.71-69.21,147.97-71.9,21.47-1.25,40.86,2.08,58.9,8.15,5.68,1.91,11.29,4.14,16.79,6.63,24.96,11.29,48.12,28.25,65.35,56.71,16.78,27.51,24.64,63.95,28.51,100.18,2.76,25.69,3.92,51.57,4.77,77.45,2.1,64.4,4.65,132.53,21.43,190.98,9.17,31.95,22.65,63.37,51,82.45,34.91,23.5,79.68,22.78,121.02,10.71,29.13-8.51,57.09-22.9,82.64-39.1,9.84-6.26,19.54-12.82,29.11-19.53,102.3-71.73,194.51-162.6,313.63-201.81,4.69-1.54,9.48-2.99,14.34-4.23,13.43-3.45,27.4-5.22,40.63-2.2,18.2,4.12,32.9,15.54,43.55,29.95,41.42,56.06,46.88,135.66,89.44,193.71,14.42,19.56,31.89,35.51,51.04,47.97,27.85,18.15,60.05,29.5,91.87,34.63,54.17,8.73,108.84,1.31,166.28-14.88"/>
      <path class="cls-3" d="M36.62,772.24c90.74,19.54,196.41,71.28,263.61,130.15,28.16,24.7,50.09,49.23,77.35,70.47,27.22,21.25,62.34,47.1,104.36,42.16,79.68-9.36,156.76-44.15,222.34-92.9,38.63-28.73,74.56-61.09,107.94-95.7,60.5-62.69,117.03-130.91,185.39-181.79,45.95-34.19,97.93-64.8,145.92-64.44,20.91.09,39.48,4.83,56.48,12.21,5.36,2.32,10.6,4.95,15.72,7.82,23.23,12.99,44.23,31.13,59.65,59.54,15.02,27.46,21.84,62.89,25.14,98.14,2.35,24.99,3.29,50.14,4.07,75.27,1.93,62.55,5.41,128.93,23.26,185.13,9.78,30.79,23.91,60.68,51.9,78.63,35.3,22.64,79.69,21.04,120.68,8.31,28.83-8.96,56.47-23.69,81.63-40.14,9.7-6.37,19.25-13.02,28.69-19.83,100.8-72.74,191.34-164.41,309.46-204.41,4.65-1.57,9.4-3.05,14.22-4.32,13.35-3.52,27.25-5.29,40.37-2.1,18.03,4.35,32.29,16.35,42.57,30.95,41.1,58.43,45.98,139.84,90.11,198.64,14.97,19.84,33.19,35.84,53.2,48.18,29.09,17.98,62.64,28.72,95.66,32.96,56.12,7.21,112.32-2.33,170.82-19.64"/>
      <path class="cls-3" d="M38.65,805.38c86.38,22.83,187.33,71.64,255.03,124.68,28.37,22.25,51.36,44,79.01,62.53,27.61,18.53,62.24,41.03,102.6,35.71,79.88-10.54,157.02-44.99,223.14-93.43,38.94-28.54,75.19-60.76,108.86-95.27,61.03-62.52,117.89-130.9,187.61-180.57,45.31-32.28,97.15-60.39,143.88-56.98,20.35,1.42,38.11,7.59,54.05,16.27,5.03,2.74,9.91,5.77,14.65,9.01,21.5,14.69,40.34,34.01,53.96,62.37,13.27,27.4,19.05,61.83,21.77,96.1,1.94,24.28,2.67,48.71,3.38,73.1,1.76,60.7,6.18,125.32,25.08,179.28,10.38,29.63,25.18,57.98,52.81,74.81,35.7,21.75,79.73,19.37,120.34,5.9,28.55-9.34,55.85-24.48,80.61-41.19,9.55-6.47,18.97-13.22,28.26-20.12,99.31-73.76,188.17-166.22,305.3-207.01,4.6-1.6,9.32-3.11,14.11-4.4,13.26-3.58,27.09-5.37,40.1-2.01,17.87,4.59,31.68,17.15,41.58,31.95,40.74,60.82,45.08,144.02,90.79,203.57,15.51,20.12,34.49,36.17,55.35,48.4,30.33,17.8,65.24,27.94,99.45,31.29,58.08,5.7,115.79-5.97,175.36-24.41"/>
      <path class="cls-3" d="M40.68,838.53c82.02,26.11,178.24,72,246.46,119.21,28.58,19.8,52.64,38.77,80.68,54.59,28,15.82,61.77,31.41,100.83,29.25,80.8-4.48,157.29-45.83,223.93-93.95,39.24-28.35,75.83-60.43,109.78-94.83,61.55-62.35,118.71-130.94,189.84-179.35,44.66-30.4,96.37-55.98,141.83-49.52,19.79,2.75,36.73,10.34,51.62,20.33,4.7,3.15,9.23,6.58,13.59,10.19,19.77,16.39,36.44,36.89,48.27,65.21,11.51,27.34,16.25,60.77,18.4,94.06,1.53,23.58,2.04,47.28,2.68,70.93,1.59,58.85,6.95,121.72,26.91,173.43,10.99,28.47,26.45,55.26,53.71,71,36.12,20.84,79.74,17.62,120,3.49,28.25-9.8,55.23-25.27,79.6-42.23,9.41-6.58,18.68-13.42,27.84-20.42,97.81-74.77,184.99-168.03,301.14-209.61,4.56-1.63,9.25-3.17,13.99-4.48,13.18-3.65,26.94-5.44,39.84-1.91,17.71,4.82,31.05,17.96,40.6,32.95,40.31,63.23,44.17,148.2,91.46,208.5,16.06,20.4,35.8,36.5,57.51,48.61,31.57,17.62,67.84,27.16,103.24,29.62,60.04,4.18,119.27-9.61,179.9-29.17"/>
      <path class="cls-3" d="M42.71,871.68c77.65,29.39,169.15,72.36,237.88,113.73,28.79,17.35,53.91,33.54,82.34,46.64,28.39,13.11,61.62,25.63,99.07,22.79,81.08-6.15,157.56-46.66,224.73-94.48,39.54-28.16,76.46-60.09,110.69-94.39,62.08-62.18,119.51-131.06,192.07-178.14,44-28.55,95.59-51.58,139.78-42.06,19.23,4.08,35.35,13.1,49.19,24.39,4.37,3.57,8.54,7.39,12.52,11.38,18.04,18.09,32.55,39.77,42.58,68.04,9.76,27.28,13.46,59.71,15.03,92.02,1.13,22.88,1.41,45.85,1.98,68.75,1.42,57,7.72,118.11,28.73,167.58,11.6,27.31,27.73,52.53,54.61,67.18,36.54,19.91,79.75,15.86,119.66,1.09,27.95-10.25,54.61-26.06,78.58-43.28,9.27-6.68,18.4-13.62,27.41-20.72,96.32-75.78,181.82-169.84,296.97-212.21,4.52-1.66,9.17-3.23,13.88-4.57,13.1-3.71,26.78-5.52,39.58-1.82,17.54,5.05,30.42,18.77,39.62,33.94,39.84,65.66,43.27,152.38,92.13,213.43,16.6,20.67,37.1,36.84,59.67,48.82,32.81,17.45,70.43,26.38,107.03,27.95,61.99,2.67,122.74-13.26,184.44-33.93"/>
      <path class="cls-3" d="M44.73,904.82c73.29,32.67,160.07,72.73,229.3,108.26,29,14.91,55.18,28.31,84.01,38.7,28.78,10.39,61.45,19.82,97.3,16.33,81.33-7.91,157.83-47.5,225.52-95.01,39.84-27.97,77.09-59.76,111.61-93.96,62.61-62.02,120.28-131.25,194.3-176.92,43.34-26.74,94.81-47.17,137.73-34.6,18.67,5.42,33.95,15.88,46.76,28.45,4.04,3.99,7.85,8.2,11.45,12.57,16.31,19.79,28.66,42.65,36.89,70.88,8,27.22,10.66,58.66,11.66,89.98.72,22.17.78,44.43,1.29,66.58,1.26,55.15,8.5,114.49,30.56,161.73,12.21,26.15,29.01,49.77,55.52,63.36,36.97,18.94,79.76,14.11,119.32-1.32,27.65-10.7,54-26.84,77.56-44.32,9.13-6.79,18.12-13.82,26.99-21.01,94.82-76.79,178.64-171.65,292.81-214.81,4.48-1.69,9.09-3.29,13.77-4.65,13.02-3.78,26.62-5.6,39.31-1.72,17.38,5.29,29.77,19.58,38.64,34.94,39.31,68.1,42.37,156.56,92.81,218.35,17.15,20.95,38.4,37.17,61.82,49.04,34.05,17.27,73.03,25.6,110.82,26.28,63.95,1.16,126.22-16.9,188.97-38.7"/>
      <path class="cls-3" d="M46.76,937.97c68.93,35.95,150.98,73.09,220.73,102.79,29.21,12.46,56.46,23.08,85.67,30.75,29.17,7.68,61.27,13.99,95.54,9.87,81.55-9.79,158.1-48.34,226.32-95.54,40.14-27.78,77.72-59.43,112.53-93.52,63.14-61.85,121.01-131.52,196.52-175.7,42.66-24.96,94.03-42.76,135.69-27.14,18.11,6.75,32.57,18.63,44.33,32.51,3.71,4.4,7.17,9.01,10.38,13.75,14.58,21.49,24.77,45.52,31.2,73.71,6.25,27.17,7.87,57.6,8.3,87.94.31,21.47.15,43,.59,64.41,1.09,53.3,9.28,110.88,32.38,155.88,12.83,24.98,30.29,47,56.42,59.54,37.41,17.94,79.77,12.36,118.98-3.72,27.35-11.15,53.38-27.63,76.55-45.37,8.99-6.89,17.83-14.02,26.57-21.31,93.33-77.8,175.47-173.46,288.64-217.41,4.44-1.72,9.01-3.35,13.65-4.73,12.94-3.85,26.47-5.67,39.05-1.62,17.22,5.52,29.12,20.38,37.66,35.94,38.72,70.55,41.46,160.75,93.48,223.28,17.69,21.23,39.7,37.5,63.98,49.25,35.29,17.09,75.63,24.88,114.61,24.61,65.92-.24,129.7-20.54,193.51-43.46"/>
      <path class="cls-3" d="M48.79,971.11c64.56,39.24,141.9,73.45,212.15,97.32,29.42,10.01,57.73,17.85,87.34,22.81,29.56,4.96,61.08,8.13,93.77,3.42,81.73-11.77,158.37-49.18,227.11-96.07,40.45-27.59,78.36-59.09,113.44-93.09,63.67-61.68,121.72-131.89,198.75-174.48,41.99-23.22,93.25-38.35,133.64-19.68,17.55,8.08,31.19,21.38,41.9,36.57,3.38,4.82,6.48,9.83,9.31,14.94,12.85,23.19,20.88,48.4,25.5,76.54,4.49,27.11,5.08,56.54,4.93,85.91-.1,20.77-.48,41.57-.11,62.23.92,51.45,10.14,107.21,34.21,150.03,13.49,23.79,31.57,44.22,57.33,55.72,37.86,16.91,79.78,10.6,118.64-6.13,27.05-11.6,52.76-28.42,75.53-46.42,8.84-7,17.55-14.22,26.14-21.6,91.83-78.81,172.29-175.27,284.48-220,4.39-1.75,8.93-3.42,13.54-4.82,12.86-3.91,26.31-5.75,38.79-1.53,17.05,5.76,28.46,21.18,36.68,36.94,38.09,73,40.56,164.93,94.16,228.21,18.24,21.51,41,37.83,66.13,49.47,36.53,16.92,78.23,24.08,118.4,22.94,67.88-1.78,133.17-24.18,198.05-48.23"/>
      <path class="cls-3" d="M50.82,1004.26c60.2,42.52,132.81,73.81,203.57,91.85,29.63,7.56,59,12.62,89,14.87,29.95,2.25,60.87,2.24,92.01-3.04,81.87-13.89,158.63-50.02,227.91-96.6,40.75-27.4,78.99-58.76,114.36-92.65,64.2-61.51,122.4-132.36,200.98-173.27,41.32-21.51,92.47-33.94,131.59-12.22,16.98,9.42,29.81,24.13,39.47,40.63,3.05,5.23,5.79,10.64,8.25,16.13,11.12,24.89,16.99,51.28,19.81,79.38,2.74,27.05,2.28,55.48,1.56,83.87-.51,20.07-1.1,40.14-.8,60.06.75,49.6,10.89,103.61,36.03,144.18,14.09,22.63,32.85,41.41,58.23,51.9,38.31,15.84,79.79,8.85,118.3-8.53,26.75-12.05,52.14-29.21,74.52-47.46,8.7-7.1,17.26-14.43,25.72-21.9,90.34-79.83,169.12-177.08,280.31-222.6,4.35-1.78,8.85-3.48,13.42-4.9,12.78-3.98,26.16-5.82,38.52-1.43,16.89,5.99,27.8,21.98,35.7,37.93,37.4,75.46,39.66,169.11,94.83,233.14,18.79,21.79,42.3,38.17,68.29,49.68,37.77,16.74,80.84,23.28,122.19,21.27,69.85-3.32,136.65-27.82,202.59-52.99"/>
      <path class="cls-3" d="M52.85,1037.41c102.56,84.12,245.77,109.46,375.91,83.81,130.14-25.65,247.7-98.1,343.98-189.34,64.73-61.34,123.06-132.94,203.2-172.05,40.66-19.84,91.69-29.53,129.54-4.76,21.62,14.15,35.61,37.64,44.22,62,24.82,70.26,9.91,147.42,10.81,221.92.9,74.51,27.34,159.94,96.99,186.42,65.62,24.94,137.77-14.22,191.46-59.45,99.99-84.22,180.92-196.74,301.45-247.4,16.37-6.88,34.93-12.51,51.57-6.32,16.73,6.22,27.12,22.78,34.72,38.93,36.66,77.93,38.76,173.29,95.5,238.07,47.43,54.14,124.61,74.36,196.42,69.5,71.81-4.86,140.13-31.46,207.13-57.76"/>
      <path class="cls-3" d="M55.21,1027.94c52.7,41.36,114.39,70.46,178.67,86.4,63.8,15.84,130.36,18.7,194.7,9.22,57.37-8.45,113.61-25.95,166.79-52.74,23.31-11.74,45.88-25.2,67.74-39.75,40.93-27.25,79.44-58.36,115.2-91.91,66.18-62.08,126.08-134.2,207.39-174.46,40.09-19.7,90.22-29.61,127.7-6.3,21.42,13.32,35.49,35.64,44.41,58.84,25.78,66.89,13.42,140.75,16.21,212.66.85,21.39,3.86,43.76,9.48,65.36,13.23,51.01,40.92,97.63,88.99,116.43,60.64,23.72,126.63-6.84,177.97-45.42,3.23-2.42,6.4-4.88,9.5-7.35,68.38-54.44,127.82-121.86,198.63-174.72,30.56-22.81,63.08-42.97,99.03-57.94,16.19-6.74,34.48-12.32,50.91-6.56,16.52,5.79,26.89,21.51,34.64,36.78,37.37,73.67,41.6,163.48,98.25,224.07,19.22,20.57,43.15,35.77,69.57,46.19,38.65,15.24,82.64,20.25,124.86,16.88,71.1-5.67,138.99-31.84,205.66-56.89"/>
      <path class="cls-3" d="M57.56,1018.48c53.92,40.5,115.6,71.29,178.98,89.57,62.93,18.19,127.99,24.05,191.84,17.86,57.13-5.54,114.46-20.02,168.89-46.31,23.86-11.52,46.87-25.2,69.13-39.97,41.69-27.66,80.91-59.21,117.47-93.16,67.63-62.81,128.98-135.7,211.57-176.88,39.46-19.68,88.74-29.7,125.86-7.84,21.21,12.49,35.38,33.64,44.61,55.69,26.74,63.52,16.92,134.09,21.61,203.41,1.42,20.62,4.93,42.24,10.92,63.19,14.05,49.44,41.83,94.97,89.04,113.99,59.54,23.98,124-3.85,174.19-39.34,3.15-2.23,6.25-4.48,9.29-6.76,66.91-50.04,125.25-112.26,195.64-162.25,30.38-21.58,62.68-41,98.24-55.66,16-6.6,34.03-12.13,50.25-6.8,16.31,5.36,26.66,20.24,34.56,34.63,38.09,69.43,44.45,153.68,101,210.07,19.17,19.15,42.89,33.16,69,42.61,38.22,13.82,81.64,17.87,123.42,14.03,70.39-6.48,137.86-32.22,204.2-56.02"/>
      <path class="cls-3" d="M59.92,1009.01c55.15,39.63,116.81,72.11,179.3,92.75,62.06,20.54,125.65,29.41,188.98,26.49,56.92-2.62,115.3-14.08,170.98-39.89,24.41-11.31,47.87-25.21,70.52-40.19,42.44-28.07,82.39-60.07,119.74-94.42,69.09-63.54,131.95-137.06,215.75-179.29,38.87-19.59,87.26-29.78,124.02-9.38,21,11.65,35.27,31.64,44.81,52.53,27.69,60.16,20.43,127.42,27.01,194.15,2,19.85,5.99,40.72,12.37,61.01,14.87,47.87,42.74,92.31,89.08,111.54,58.45,24.24,121.37-.87,170.41-33.26,3.08-2.03,6.11-4.09,9.09-6.17,65.45-45.65,122.67-102.66,192.65-149.78,30.19-20.34,62.28-39.03,97.45-53.38,15.82-6.46,33.58-11.94,49.59-7.04,16.1,4.92,26.44,18.97,34.48,32.48,38.82,65.21,47.3,143.87,103.75,196.08,19.13,17.74,42.63,30.55,68.44,39.04,37.79,12.39,80.65,15.49,121.99,11.17,69.67-7.29,136.73-32.59,202.73-55.16"/>
      <path class="cls-3" d="M62.28,999.55c56.37,38.77,118.01,72.94,179.62,95.92,61.19,22.89,123.34,33.49,186.12,35.13,56.7,1.48,116.14-8.15,173.07-33.47,24.96-11.1,48.86-25.21,71.91-40.41,43.2-28.48,83.87-60.92,122.01-95.68,70.54-64.28,134.92-138.42,219.93-181.71,38.28-19.49,85.79-29.86,122.17-10.92,20.79,10.82,35.12,29.66,45.01,49.37,28.53,56.85,23.93,120.76,32.4,184.89,2.58,19.08,7.1,39.19,13.81,58.84,15.79,46.27,43.66,89.66,89.13,109.09,57.35,24.5,118.73,2.11,166.63-27.17,3.01-1.84,5.97-3.7,8.88-5.57,63.98-41.26,120.1-93.06,189.66-137.32,30.01-19.11,61.87-37.06,96.67-51.11,15.64-6.32,33.12-11.75,48.93-7.28,15.89,4.49,26.21,17.71,34.4,30.33,39.56,61,50.15,134.07,106.5,182.08,19.09,16.32,42.36,27.95,67.87,35.46,37.36,10.97,79.65,13.11,120.56,8.32,68.96-8.1,135.59-32.97,201.27-54.29"/>
      <path class="cls-3" d="M64.64,990.08c57.6,37.91,119.22,73.77,179.94,99.09,60.32,25.24,121,40.18,183.26,43.76,56.53,3.26,116.98-2.21,175.16-27.04,25.51-10.88,49.85-25.22,73.31-40.64,43.95-28.89,85.35-61.77,124.29-96.93,71.99-65.01,137.89-139.77,224.11-184.12,37.69-19.39,84.31-29.94,120.33-12.46,20.58,9.99,35,27.67,45.21,46.21,29.47,53.5,27.31,114.12,37.8,175.63,3.12,18.32,8.18,37.66,15.25,56.66,16.63,44.69,44.57,87,89.17,106.64,56.25,24.76,116.1,5.09,162.85-21.09,2.94-1.64,5.83-3.3,8.67-4.98,62.52-36.86,117.53-83.46,186.67-124.85,29.82-17.87,61.47-35.09,95.88-48.83,15.46-6.18,32.67-11.56,48.26-7.52,15.68,4.05,25.99,16.44,34.32,28.18,40.31,56.8,52.99,124.26,109.25,168.09,19.05,14.9,42.1,25.34,67.31,31.88,36.92,9.54,78.65,10.73,119.13,5.47,68.25-8.91,134.46-33.35,199.81-53.42"/>
      <path class="cls-3" d="M67,980.62c58.82,37.05,120.42,74.59,180.26,102.27,59.45,27.6,118.69,45.59,180.4,52.4,56.35,6.22,117.83,3.72,177.25-20.62,26.06-10.67,50.84-25.22,74.7-40.86,44.71-29.3,86.83-62.63,126.56-98.19,73.44-65.74,140.86-141.11,228.29-186.54,37.11-19.28,82.83-30.02,118.49-14,20.37,9.15,34.88,25.68,45.4,43.05,30.4,50.15,30.8,107.46,43.2,166.37,3.7,17.55,9.25,36.13,16.69,54.49,17.48,43.12,45.48,84.35,89.21,104.2,55.15,25.02,113.47,8.08,159.07-15.01,2.87-1.44,5.69-2.91,8.46-4.39,61.05-32.47,114.95-73.85,183.68-112.39,29.64-16.64,61.07-33.12,95.09-46.55,15.28-6.04,32.22-11.37,47.6-7.76,15.46,3.62,25.77,15.19,34.24,26.03,41.08,52.62,55.84,114.46,112,154.09,19.01,13.49,41.83,22.74,66.74,28.31,36.49,8.12,77.66,8.35,117.69,2.61,67.54-9.72,133.33-33.72,198.34-52.56"/>
      <path class="cls-3" d="M69.36,971.15c60.05,36.19,121.63,75.42,180.57,105.44,58.58,29.95,116.4,51.02,177.54,61.04,56.18,9.2,118.67,9.66,179.35-14.19,26.61-10.46,51.83-25.23,76.09-41.08,45.47-29.71,88.3-63.48,128.83-99.44,74.89-66.48,143.84-142.45,232.47-188.95,36.52-19.16,81.35-30.1,116.65-15.54,20.16,8.32,34.76,23.69,45.6,39.89,31.34,46.81,34.28,100.81,48.6,157.11,4.27,16.78,10.32,34.61,18.13,52.31,18.31,41.54,46.39,81.69,89.26,101.75,54.06,25.28,110.84,11.06,155.29-8.93,2.8-1.25,5.55-2.52,8.26-3.8,59.59-28.08,112.38-64.25,180.68-99.92,29.46-15.4,60.67-31.15,94.3-44.27,15.1-5.9,31.77-11.18,46.94-8.01,15.25,3.19,25.56,13.93,34.16,23.89,41.88,48.46,58.69,104.65,114.75,140.09,18.97,12.07,41.57,20.13,66.18,24.73,36.06,6.7,76.66,5.97,116.26-.24,66.82-10.53,132.19-34.1,196.88-51.69"/>
      <path class="cls-3" d="M71.72,961.69c61.28,35.32,122.84,76.25,180.89,108.62,57.71,32.3,114.11,56.47,174.68,69.67,56.01,12.2,119.51,15.6,181.44-7.77,27.16-10.24,52.82-25.23,77.48-41.3,46.22-30.12,89.78-64.33,131.1-100.7,76.35-67.21,146.83-143.77,236.65-191.37,35.94-19.04,79.88-30.18,114.8-17.08,19.95,7.48,34.64,21.7,45.8,36.73,32.28,43.47,37.77,94.16,54,147.85,4.84,16.02,11.39,33.08,19.57,50.14,19.15,39.96,47.3,79.04,89.3,99.3,52.96,25.54,108.2,14.04,151.51-2.85,2.73-1.05,5.41-2.12,8.05-3.2,58.12-23.69,109.81-54.65,177.69-87.45,29.27-14.17,60.26-29.18,93.51-42,14.92-5.76,31.31-10.98,46.28-8.25,15.04,2.75,25.35,12.68,34.08,21.74,42.7,44.31,61.54,94.85,117.5,126.1,18.92,10.66,41.3,17.52,65.61,21.16,35.63,5.27,75.67,3.59,114.83-3.1,66.11-11.34,131.06-34.48,195.41-50.83"/>
      <path class="cls-3" d="M74.08,952.22c62.5,34.46,124.04,77.08,181.21,111.79,56.84,34.65,111.82,61.95,171.82,78.31,55.85,15.22,120.36,21.53,183.53-1.35,27.71-10.03,53.81-25.23,78.87-41.52,46.98-30.53,91.26-65.19,133.37-101.96,77.8-67.95,149.81-145.09,240.83-193.78,35.37-18.92,78.4-30.26,112.96-18.62,19.74,6.65,34.52,19.71,46,33.57,33.22,40.13,41.26,87.51,59.4,138.59,5.42,15.25,12.47,31.56,21.01,47.96,19.98,38.38,48.21,76.38,89.35,96.85,51.86,25.8,105.57,17.02,147.73,3.24,2.65-.86,5.27-1.73,7.84-2.61,56.65-19.29,107.23-45.05,174.7-74.99,29.09-12.93,59.86-27.21,92.72-39.72,14.74-5.62,30.86-10.79,45.62-8.49,14.83,2.32,25.15,11.42,34,19.59,43.56,40.17,64.44,84.93,120.25,112.1,18.9,9.2,41.04,14.92,65.05,17.58,35.19,3.85,74.67,1.21,113.4-5.95,65.4-12.15,129.93-34.85,193.95-49.96"/>
      <path class="cls-3" d="M76.44,942.76c63.73,33.6,125.25,77.9,181.53,114.97,55.97,37,109.52,67.45,168.96,86.94,55.69,18.26,121.2,27.47,185.62,5.08,28.26-9.82,54.81-25.24,80.27-41.74,47.73-30.94,92.74-66.04,135.64-103.21,79.25-68.68,152.8-146.39,245.02-196.19,34.79-18.79,76.92-30.35,111.12-20.17,19.53,5.82,34.41,17.72,46.2,30.42,34.17,36.79,44.76,80.87,64.79,129.33,5.99,14.49,13.54,30.03,22.45,45.79,20.82,36.8,49.12,73.72,89.39,94.41,50.76,26.06,102.94,20.01,143.95,9.32,2.58-.66,5.13-1.34,7.63-2.02,55.19-14.9,104.66-35.44,171.71-62.52,28.9-11.7,59.46-25.24,91.94-37.44,14.56-5.48,30.41-10.6,44.96-8.73,14.62,1.88,24.96,10.17,33.92,17.44,44.46,36.03,67.28,75.11,123,98.11,18.86,7.78,40.77,12.31,64.48,14.01,34.76,2.43,73.67-1.17,111.96-8.8,64.68-12.96,128.79-35.23,192.49-49.09"/>
      <path class="cls-3" d="M78.8,933.29c64.95,32.74,126.46,78.73,181.85,118.14,55.1,39.35,107.23,72.97,166.09,95.58,55.52,21.32,122.04,33.4,187.71,11.5,28.81-9.6,55.8-25.24,81.66-41.96,48.49-31.35,94.22-66.89,137.91-104.47,80.7-69.41,155.8-147.69,249.2-198.61,34.22-18.66,75.45-30.43,109.28-21.71,19.33,4.98,34.29,15.73,46.4,27.26,35.13,33.45,48.25,74.22,70.19,120.07,6.57,13.72,14.6,28.5,23.89,43.61,21.64,35.22,50.03,71.07,89.43,91.96,49.67,26.32,100.29,22.9,140.17,15.4,2.51-.47,4.99-.94,7.42-1.43,53.72-10.51,102.09-25.84,168.72-50.05,28.72-10.46,59.06-23.27,91.15-35.16,14.38-5.34,29.96-10.41,44.3-8.97,14.41,1.45,24.78,8.92,33.85,15.29,45.4,31.89,70.13,65.29,125.75,84.11,18.82,6.37,40.51,9.71,63.91,10.43,34.33,1,72.68-3.55,110.53-11.66,63.97-13.77,127.66-35.61,191.02-48.23"/>
      <path class="cls-3" d="M81.15,923.83c66.18,31.87,127.66,79.56,182.16,121.32,54.23,41.7,104.92,78.51,163.23,104.21,55.34,24.4,122.88,39.34,189.81,17.92,29.36-9.39,56.79-25.25,83.05-42.18,49.25-31.76,95.69-67.75,140.18-105.72,82.15-70.15,158.8-148.97,253.38-201.02,33.65-18.52,73.97-30.51,107.43-23.25,19.12,4.15,34.18,13.75,46.59,24.1,36.09,30.11,51.76,67.57,75.59,110.81,7.14,12.96,15.67,26.98,25.33,41.44,22.47,33.64,50.95,68.41,89.48,89.51,48.57,26.58,97.66,25.88,136.39,21.48,2.44-.28,4.85-.55,7.22-.83,52.26-6.12,99.52-16.24,165.72-37.59,28.53-9.23,58.65-21.3,90.36-32.89,14.2-5.2,29.51-10.22,43.63-9.21,14.2,1.02,24.6,7.66,33.77,13.14,46.38,27.74,72.97,55.48,128.5,70.11,18.77,4.95,40.24,7.1,63.35,6.86,33.9-.42,71.68-5.93,109.1-14.51,63.26-14.58,126.53-35.98,189.56-47.36"/>
      <path class="cls-3" d="M83.51,914.36c67.4,31.01,128.87,80.39,182.48,124.49,53.37,44.05,102.61,84.06,160.37,112.85s123.73,45.27,191.9,24.35c29.91-9.17,57.78-25.25,84.44-42.4,50-32.16,97.17-68.6,142.45-106.98,83.61-70.88,161.81-150.25,257.56-203.44,33.08-18.38,72.49-30.59,105.59-24.79,18.91,3.32,34.08,11.76,46.79,20.94,37.05,26.76,55.26,60.93,80.99,101.55,7.72,12.2,16.74,25.45,26.77,39.27,23.29,32.06,51.86,65.76,89.52,87.07,47.47,26.84,95.03,28.85,132.61,27.57,2.37-.08,4.7-.16,7.01-.24,50.79-1.72,96.94-6.64,162.73-25.12,28.35-7.99,58.25-19.33,89.57-30.61,14.01-5.06,29.05-10.03,42.97-9.45,13.99.58,24.44,6.39,33.69,10.99,47.42,23.56,75.8,45.67,131.24,56.12,18.73,3.53,39.98,4.49,62.78,3.28,33.47-1.85,70.69-8.31,107.67-17.37,62.55-15.39,125.39-36.36,188.09-46.49"/>
      <path class="cls-3" d="M85.87,904.9c68.63,30.15,130.08,81.21,182.8,127.67,52.5,46.41,100.29,89.63,157.51,121.49s124.57,51.21,193.99,30.77c30.46-8.96,58.77-25.26,85.83-42.62,50.76-32.57,98.65-69.45,144.72-108.24,85.06-71.61,164.82-151.51,261.74-205.85,32.52-18.23,71.02-30.67,103.75-26.33,18.7,2.48,33.97,9.76,46.99,17.78,38.03,23.41,58.77,54.28,86.39,92.29,8.3,11.43,17.8,23.93,28.21,37.09,24.11,30.48,52.77,63.1,89.57,84.62,46.37,27.1,92.41,31.83,128.83,33.65,2.3.11,4.56.24,6.8.35,49.33,2.67,94.37,2.97,159.74-12.66,28.16-6.76,57.85-17.35,88.78-28.33,13.83-4.92,28.6-9.84,42.31-9.69,13.78.15,24.28,5.12,33.61,8.84,48.49,19.34,78.64,35.86,133.99,42.12,18.68,2.11,39.71,1.89,62.22-.29,33.03-3.27,69.69-10.69,106.23-20.22,61.83-16.2,124.26-36.74,186.63-45.63"/>
      <path class="cls-3" d="M88.23,895.43c69.86,29.29,131.28,82.04,183.12,130.84,51.63,48.76,97.95,95.21,154.65,130.12,54.76,33.72,125.41,57.14,196.08,37.2,31.01-8.75,59.76-25.26,87.23-42.85,51.51-32.98,100.13-70.31,146.99-109.49,86.51-72.35,167.85-152.76,265.92-208.27,31.95-18.08,69.54-30.75,101.91-27.87,18.49,1.65,33.86,7.77,47.19,14.62,39.01,20.06,62.29,47.63,91.79,83.03,8.89,10.67,18.87,22.4,29.66,34.92,24.92,28.91,53.68,60.45,89.61,82.17,45.27,27.36,89.79,34.82,125.05,39.73,2.23.31,4.42.63,6.59.94,47.86,7.06,91.8,12.57,156.75-.19,27.98-5.52,57.45-15.38,87.99-26.05,13.65-4.78,28.15-9.65,41.65-9.94,13.57-.29,24.13,3.84,33.53,6.69,49.6,15.06,81.47,26.05,136.74,28.13,18.63.7,39.45-.72,61.65-3.87,32.6-4.69,68.69-13.06,104.8-23.07,61.12-17.01,123.13-37.11,185.17-44.76"/>
      <path class="cls-3" d="M90.59,885.97c71.08,28.43,132.49,82.87,183.44,134.02,50.76,51.11,95.6,100.8,151.79,138.76,54.54,36.84,126.26,63.08,198.17,43.62,31.56-8.53,60.75-25.27,88.62-43.07,52.27-33.39,101.61-71.16,149.26-110.75,87.96-73.08,170.87-154,270.1-210.68,31.39-17.93,68.06-30.83,100.06-29.41,18.28.81,33.76,5.77,47.39,11.46,39.99,16.7,65.81,40.98,97.19,73.77,9.47,9.9,19.93,20.88,31.1,32.74,25.73,27.33,54.59,57.79,89.65,79.72,44.18,27.62,87.16,37.8,121.27,45.81,2.15.51,4.28,1.02,6.39,1.54,46.4,11.45,89.22,22.17,153.76,12.28,27.8-4.29,57.04-13.41,87.21-23.78,13.47-4.64,27.7-9.46,40.99-10.18,13.36-.72,23.99,2.54,33.45,4.54,50.72,10.72,84.31,16.25,139.49,14.13,18.59-.72,39.18-3.32,61.09-7.44,32.17-6.12,67.7-15.44,103.37-25.93,60.41-17.82,121.99-37.49,183.7-43.9"/>
      <path class="cls-3" d="M92.95,876.51c72.31,27.56,133.7,83.69,183.75,137.19,49.89,53.46,93.24,106.39,148.93,147.39,54.3,39.98,127.1,69.01,200.27,50.04,32.11-8.32,61.75-25.27,90.01-43.29,53.03-33.8,103.09-72.01,151.53-112,89.42-73.81,173.91-155.23,274.28-213.1,30.83-17.77,66.59-30.91,98.22-30.95,18.07-.02,33.66,3.77,47.59,8.31,40.98,13.33,69.34,34.32,102.58,64.51,10.05,9.13,20.99,19.36,32.54,30.57,26.54,25.76,55.5,55.13,89.7,77.28,43.08,27.88,84.54,40.79,117.49,51.89,2.08.7,4.14,1.42,6.18,2.13,44.93,15.85,86.65,31.77,150.76,24.74,27.61-3.05,56.64-11.44,86.42-21.5,13.29-4.5,27.25-9.27,40.33-10.42,13.15-1.15,23.84,1.23,33.37,2.39,51.85,6.31,87.15,6.46,142.24.13,18.54-2.13,38.92-5.93,60.52-11.02,31.74-7.54,66.7-17.82,101.94-28.78,59.7-18.63,120.86-37.87,182.24-43.03"/>
      <path class="cls-3" d="M95.31,867.04c73.53,26.7,134.9,84.52,184.07,140.36,49.02,55.81,90.87,112,146.07,156.03,54.06,43.12,127.94,74.95,202.36,56.47,32.66-8.11,62.74-25.27,91.4-43.51,53.78-34.21,104.56-72.87,153.81-113.26,90.87-74.55,176.95-156.45,278.46-215.51,30.27-17.61,65.11-30.99,96.38-32.49,17.86-.85,33.56,1.77,47.78,5.15,41.96,9.95,72.87,27.66,107.98,55.25,10.64,8.36,22.05,17.84,33.98,28.39,27.35,24.2,56.41,52.48,89.74,74.83,41.98,28.14,81.91,43.78,113.71,57.98,2.01.9,4,1.81,5.97,2.72,43.46,20.24,84.08,41.37,147.77,37.21,27.43-1.82,56.24-9.47,85.63-19.22,13.11-4.36,26.79-9.08,39.67-10.66,12.94-1.59,23.7.72,33.29.24,52.92-2.66,89.99-3.34,144.99-13.86,18.5-3.54,38.65-8.54,59.96-14.59,31.31-8.96,65.71-20.2,100.5-31.64,58.98-19.44,119.73-38.24,180.77-42.16"/>
      <path class="cls-3" d="M97.67,857.58c74.76,25.84,136.11,85.35,184.39,143.54,48.15,58.16,88.48,117.6,143.21,164.66,53.8,46.27,128.78,80.88,204.45,62.89,33.21-7.89,63.73-25.28,92.79-43.73,54.54-34.62,106.04-73.72,156.08-114.52,92.32-75.28,180-157.65,282.64-217.93,29.72-17.45,63.63-31.08,94.54-34.03,17.65-1.69,33.46-.23,47.98,1.99,42.95,6.56,76.4,20.99,113.38,45.99,11.23,7.59,23.11,16.32,35.42,26.22,28.15,22.64,57.32,49.82,89.79,72.38,40.88,28.4,79.28,46.78,109.93,64.06,1.94,1.09,3.86,2.2,5.76,3.31,42,24.63,81.5,50.98,144.78,49.67,27.24-.58,55.84-7.5,84.84-16.94,12.93-4.22,26.34-8.89,39-10.9,12.73-2.02,23.53-1.42,33.21-1.91,54.04-2.72,92.83-13.13,147.74-27.86,18.46-4.95,38.39-11.14,59.39-18.17,30.87-10.39,64.71-22.58,99.07-34.49,58.27-20.25,118.59-38.62,179.31-41.3"/>
      <path class="cls-3" d="M100.03,848.11c75.98,24.98,137.32,86.18,184.71,146.71,47.28,60.51,86.08,123.21,140.35,173.3,53.53,49.42,129.63,86.82,206.54,69.31,33.76-7.68,64.72-25.28,94.19-43.95,55.29-35.03,107.52-74.57,158.35-115.77,93.77-76.02,183.06-158.83,286.83-220.34,29.16-17.29,62.15-31.16,92.69-35.57,17.44-2.52,33.35-2.24,48.18-1.17,43.93,3.17,79.93,14.31,118.78,36.73,11.81,6.82,24.16,14.8,36.86,24.04,28.96,21.08,58.24,47.17,89.83,69.93,39.79,28.66,76.65,49.77,106.15,70.14,1.87,1.29,3.72,2.6,5.55,3.91,40.53,29.03,78.93,60.58,141.79,62.14,27.06.65,55.43-5.53,84.05-14.67,12.75-4.08,25.89-8.7,38.34-11.14,12.52-2.46,23.37-2.76,33.13-4.06,55.07-7.32,95.71-22.81,150.49-41.85,18.42-6.33,38.12-13.75,58.83-21.75,30.44-11.81,63.71-24.96,97.64-37.34,57.56-21.06,117.46-39,177.85-40.43"/>
      <path class="cls-3" d="M102.39,838.65c77.21,24.12,138.52,87,185.03,149.89,46.41,62.86,83.67,128.81,137.49,181.94,53.25,52.56,130.47,92.75,208.63,75.74,34.31-7.47,65.71-25.29,95.58-44.17,56.05-35.44,109-75.43,160.62-117.03,95.22-76.75,186.13-160,291.01-222.76,28.61-17.12,60.68-31.24,90.85-37.11,17.24-3.35,33.25-4.25,48.38-4.33,44.91-.24,83.46,7.63,124.18,27.47,12.4,6.04,25.22,13.29,38.3,21.87,29.76,19.53,59.15,44.51,89.87,67.49,38.69,28.91,73.98,52.81,102.37,76.22,1.8,1.49,3.58,2.99,5.35,4.5,39.07,33.42,76.36,70.18,138.8,74.61,26.87,1.89,55.03-3.56,83.26-12.39,12.57-3.94,25.44-8.51,37.68-11.38,12.31-2.89,23.2-4.1,33.05-6.21,56.06-11.96,98.55-32.62,153.24-55.85,18.38-7.74,37.86-16.36,58.26-25.32,30.01-13.24,62.72-27.34,96.21-40.2,56.84-21.87,116.33-39.37,176.38-39.56"/>
      <path class="cls-3" d="M104.74,829.18c78.43,23.25,139.73,87.83,185.34,153.06,45.54,65.22,81.25,134.42,134.63,190.57,52.96,55.71,131.31,98.69,210.73,82.16,34.86-7.25,66.7-25.29,96.97-44.39,56.81-35.85,110.48-76.28,162.89-118.29,96.68-77.48,189.21-161.16,295.19-225.17,28.06-16.95,59.2-31.32,89.01-38.65,17.03-4.19,33.14-6.26,48.58-7.49,45.87-3.64,86.99.95,129.58,18.22,12.98,5.27,26.28,11.78,39.74,19.69,30.56,17.98,60.06,41.86,89.92,65.04,37.59,29.17,71.34,55.79,98.59,82.3,1.72,1.69,3.44,3.38,5.14,5.09,37.6,37.81,73.79,79.78,135.8,87.07,26.69,3.12,54.63-1.59,82.48-10.11,12.39-3.8,24.98-8.32,37.02-11.62,12.1-3.32,23.01-5.45,32.97-8.35,56.99-16.61,101.4-42.43,155.99-69.85,18.34-9.16,37.59-18.96,57.69-28.9,29.58-14.66,61.72-29.72,94.77-43.05,56.13-22.68,115.19-39.75,174.92-38.7"/>
      <path class="cls-3" d="M107.1,819.72c79.66,22.39,140.94,88.66,185.66,156.24,44.67,67.57,78.82,140.03,131.77,199.21,52.66,58.86,132.16,104.63,212.82,88.59,35.41-7.04,67.69-25.3,98.36-44.61,57.56-36.26,111.95-77.14,165.16-119.54,98.13-78.22,192.31-162.3,299.37-227.58,27.51-16.78,57.72-31.4,87.17-40.19,16.82-5.02,33.03-8.28,48.77-10.65,46.84-7.06,90.51-5.75,134.98,8.96,13.57,4.49,27.34,10.27,41.18,17.52,31.36,16.43,60.97,39.2,89.96,62.59,36.49,29.43,68.71,58.78,94.81,88.39,1.65,1.88,3.3,3.78,4.93,5.68,36.14,42.2,71.21,89.39,132.81,99.54,26.5,4.36,54.23.38,81.69-7.84,12.21-3.66,24.53-8.13,36.36-11.87,11.89-3.76,22.82-6.8,32.89-10.5,57.86-21.28,104.25-52.23,158.74-83.84,18.3-10.57,37.33-21.57,57.13-32.47,29.15-16.08,60.73-32.1,93.34-45.91,55.42-23.49,114.06-40.13,173.45-37.83"/>
      <path class="cls-3" d="M109.46,810.25c80.89,21.53,142.14,89.49,185.98,159.41,43.8,69.92,76.38,145.63,128.9,207.84s133,110.56,214.91,95.01c35.96-6.83,68.69-25.3,99.76-44.84,58.32-36.67,113.43-77.99,167.43-120.8,99.58-78.95,195.41-163.42,303.55-230,26.97-16.6,56.25-31.48,85.32-41.73,16.61-5.85,32.91-10.32,48.97-13.81,47.77-10.56,94.05-12.52,140.37-.3,14.16,3.69,28.39,8.76,42.62,15.35,32.17,14.89,61.88,36.54,90.01,60.14,35.4,29.69,66.08,61.76,91.03,94.47,1.58,2.08,3.15,4.17,4.72,6.28,34.67,46.6,68.64,98.99,129.82,112.01,26.32,5.59,53.82,2.35,80.9-5.56,12.03-3.52,24.08-7.94,35.7-12.11,11.68-4.19,22.62-8.15,32.81-12.65,58.7-25.95,107.1-62.04,161.49-97.84,18.26-11.99,37.06-24.17,56.56-36.05,28.71-17.51,59.73-34.48,91.91-48.76,54.71-24.3,112.93-40.5,171.99-36.96"/>
      <path class="cls-3" d="M111.82,800.79c82.11,20.67,143.35,90.31,186.3,162.59,42.93,72.27,73.84,151.3,126.04,216.48,51.93,65.23,133.84,116.5,217,101.43,36.51-6.61,69.68-25.3,101.15-45.06,59.07-37.08,114.91-78.84,169.7-122.05,101.03-79.68,198.63-164.36,307.73-232.41,26.45-16.38,54.77-31.56,83.48-43.27,16.4-6.69,32.8-12.32,49.17-16.96,48.73-13.93,97.56-19.18,145.77-9.56,14.74,2.92,29.45,7.27,44.06,13.17,32.96,13.4,62.79,33.89,90.05,57.7,34.3,29.95,63.44,64.74,87.25,100.55,1.51,2.27,3.01,4.56,4.52,6.87,33.21,50.99,66.07,108.59,126.83,124.47,26.14,6.83,53.42,4.32,80.11-3.28,11.84-3.38,23.63-7.75,35.04-12.35,11.47-4.63,22.41-9.49,32.73-14.8,59.49-30.6,109.94-71.84,164.23-111.83,18.22-13.4,36.8-26.78,56-39.62,28.28-18.93,58.73-36.86,90.48-51.61,53.99-25.11,111.8-40.88,170.53-36.1"/>
      <path class="cls-3" d="M114.18,791.32c83.34,19.81,144.56,91.14,186.62,165.76,42.06,74.62,71.48,156.82,123.18,225.12,51.7,68.29,134.68,122.43,219.09,107.86,37.06-6.4,70.67-25.31,102.54-45.28,170.15-106.61,313.82-251.39,483.88-358.14,98.13-61.6,218.34-111.06,327.68-72.76,76.27,26.71,132.9,92.05,173.56,161.88,33.23,57.07,65.07,124.81,128.14,144.4,49.03,15.23,102.04-4.63,146.35-30.54,80.45-47.05,147.17-114.03,222.42-169.03,75.25-55,165.39-99.26,258.1-89.7"/>
    </g>
  </g>
</svg>